  <svg width="242.531" height="62.267" viewBox="0 0 242.531 62.267" xmlns="http://www.w3.org/2000/svg"><g id="svgGroup" stroke-linecap="round" fill-rule="nonzero" font-size="9pt" stroke="#FFFFFF" stroke-width="0.5" fill="#FFFFFF" style="stroke:#FFFFFF;stroke-width:0.5;fill:#FFFFFF"><path d="M 0 44.082 L 11.745 40.97 Q 12.948 45.618 16.227 48.149 Q 19.505 50.681 24.444 50.681 Q 28.054 50.681 30.046 49.166 A 5.035 5.035 0 0 0 32.038 44.912 L 32.038 44.622 Q 32.038 42.256 30.295 40.659 A 16.045 16.045 0 0 0 26.193 38.194 A 43.281 43.281 0 0 0 24.111 37.318 L 16.019 34.122 Q 3.445 29.184 3.445 17.605 L 3.445 17.439 A 16.324 16.324 0 0 1 5.997 8.33 Q 8.549 4.408 13.073 2.209 Q 17.596 0.009 23.614 0.009 A 24.267 24.267 0 0 1 34.995 2.489 A 18.078 18.078 0 0 1 37.08 3.765 Q 42.372 7.521 44.571 14.825 L 32.91 18.145 Q 30.959 11.588 23.614 11.588 Q 20.169 11.588 18.156 13.02 Q 16.144 14.451 16.144 16.9 L 16.144 17.149 A 4.471 4.471 0 0 0 17.575 20.51 A 13.811 13.811 0 0 0 21.483 22.851 A 34.488 34.488 0 0 0 22.535 23.291 L 30.627 26.486 A 29.305 29.305 0 0 1 38.97 31.29 A 17.323 17.323 0 0 1 41.334 33.749 Q 44.737 38.106 44.737 44.663 L 44.737 44.995 A 16.22 16.22 0 0 1 42.205 54.063 A 16.853 16.853 0 0 1 35.13 60.101 Q 30.586 62.259 24.485 62.259 A 27.976 27.976 0 0 1 13.239 60.081 Q 8.217 57.902 4.814 53.814 A 24.106 24.106 0 0 1 0 44.082 Z" id="0"/><path d="M 51.211 39.476 L 51.211 38.563 A 24.578 24.578 0 0 1 54.012 26.59 A 19.981 19.981 0 0 1 61.835 18.622 A 23.266 23.266 0 0 1 73.497 15.779 Q 79.473 15.779 83.913 18.269 A 17.438 17.438 0 0 1 90.823 25.304 Q 93.292 29.848 93.292 35.948 Q 93.292 37.733 93.168 39.248 Q 93.043 40.762 92.753 41.966 L 57.727 41.966 L 57.727 34.662 L 81.838 34.662 L 81.838 34.911 Q 81.838 30.595 79.639 28.167 Q 77.439 25.739 73.58 25.739 Q 68.766 25.739 65.964 29.205 A 14.038 14.038 0 0 0 63.188 37.616 A 24.683 24.683 0 0 0 63.163 38.729 L 63.163 39.31 A 15.003 15.003 0 0 0 65.398 47.877 A 10.648 10.648 0 0 0 66.006 48.689 A 9.503 9.503 0 0 0 73.745 52.133 Q 79.763 52.133 82.336 46.24 L 93.002 50.681 A 18.624 18.624 0 0 1 85.531 59.251 A 22.356 22.356 0 0 1 73.745 62.259 Q 66.898 62.259 61.835 59.437 A 19.631 19.631 0 0 1 53.991 51.49 Q 51.211 46.365 51.211 39.476 Z" id="1"/><path d="M 101.011 39.476 L 101.011 38.563 A 24.578 24.578 0 0 1 103.812 26.59 A 19.981 19.981 0 0 1 111.635 18.622 A 23.266 23.266 0 0 1 123.297 15.779 Q 129.273 15.779 133.713 18.269 A 17.438 17.438 0 0 1 140.623 25.304 Q 143.092 29.848 143.092 35.948 Q 143.092 37.733 142.968 39.248 Q 142.843 40.762 142.552 41.966 L 107.527 41.966 L 107.527 34.662 L 131.638 34.662 L 131.638 34.911 Q 131.638 30.595 129.439 28.167 Q 127.239 25.739 123.38 25.739 Q 118.566 25.739 115.764 29.205 A 14.038 14.038 0 0 0 112.988 37.616 A 24.683 24.683 0 0 0 112.963 38.729 L 112.963 39.31 A 15.003 15.003 0 0 0 115.198 47.877 A 10.648 10.648 0 0 0 115.806 48.689 A 9.503 9.503 0 0 0 123.545 52.133 Q 129.563 52.133 132.136 46.24 L 142.802 50.681 A 18.624 18.624 0 0 1 135.331 59.251 A 22.356 22.356 0 0 1 123.545 62.259 Q 116.698 62.259 111.635 59.437 A 19.631 19.631 0 0 1 103.791 51.49 Q 101.011 46.365 101.011 39.476 Z" id="2"/><path d="M 165.419 60.848 L 152.886 60.848 L 152.886 17.19 L 164.796 17.19 L 164.796 23.83 L 165.17 23.83 A 17.795 17.795 0 0 1 171.188 17.875 A 15.521 15.521 0 0 1 179.197 15.779 Q 185.256 15.779 188.742 19.888 A 15.99 15.99 0 0 1 192.207 29.897 A 26.584 26.584 0 0 1 192.228 30.968 L 192.228 60.848 L 179.695 60.848 L 179.695 33.707 Q 179.695 30.138 178.118 28.188 Q 176.541 26.237 173.387 26.237 A 7.3 7.3 0 0 0 167.618 28.748 A 9.619 9.619 0 0 0 165.419 35.326 L 165.419 60.848 Z" id="3"/><path d="M 201.192 41.509 L 201.192 1.42 L 213.974 1.42 L 213.974 41.177 Q 213.974 45.327 216.07 47.776 Q 218.166 50.224 221.859 50.224 Q 225.594 50.224 227.669 47.776 Q 229.744 45.327 229.744 41.177 L 229.744 1.42 L 242.526 1.42 L 242.526 41.509 A 22.124 22.124 0 0 1 239.953 52.362 Q 237.38 57.03 232.753 59.645 Q 228.126 62.259 221.88 62.259 Q 215.634 62.259 210.986 59.645 Q 206.338 57.03 203.765 52.362 Q 201.192 47.693 201.192 41.509 Z" id="4"/></g></svg>
